<mxfile host="Electron" modified="2024-05-16T18:56:34.437Z" agent="Mozilla/5.0 (Windows NT 10.0; Win64; x64) AppleWebKit/537.36 (KHTML, like Gecko) draw.io/24.4.0 Chrome/120.0.6099.109 Electron/28.1.0 Safari/537.36" etag="5B4JaHlx-spGRtqfRalu" version="24.4.0" type="device">
  <diagram name="Page-1" id="PlogBAuquy3NyxP3YzZk">
    <mxGraphModel dx="1036" dy="1783" grid="0" gridSize="10" guides="1" tooltips="1" connect="1" arrows="1" fold="1" page="1" pageScale="1" pageWidth="827" pageHeight="1169" math="0" shadow="0">
      <root>
        <mxCell id="0" />
        <mxCell id="1" parent="0" />
        <mxCell id="z6OLUDkOgAweelYilt0C-42" value="&lt;span style=&quot;background-color: initial;&quot;&gt;Generate Reports Activity Diagram&lt;/span&gt;" style="text;html=1;align=center;verticalAlign=middle;resizable=0;points=[];autosize=1;strokeColor=none;fillColor=none;fontSize=25;" parent="1" vertex="1">
          <mxGeometry x="197" y="-1131" width="403" height="42" as="geometry" />
        </mxCell>
        <mxCell id="z6OLUDkOgAweelYilt0C-98" value="" style="group" parent="1" vertex="1" connectable="0">
          <mxGeometry x="87.99761431411531" y="-1050" width="694" height="1029" as="geometry" />
        </mxCell>
        <mxCell id="z6OLUDkOgAweelYilt0C-43" value="Open the system" style="rounded=1;whiteSpace=wrap;html=1;" parent="z6OLUDkOgAweelYilt0C-98" vertex="1">
          <mxGeometry x="285.9223856858847" y="87" width="120" height="60" as="geometry" />
        </mxCell>
        <mxCell id="z6OLUDkOgAweelYilt0C-44" value="" style="edgeStyle=orthogonalEdgeStyle;rounded=0;orthogonalLoop=1;jettySize=auto;html=1;exitX=0.5;exitY=1;exitDx=0;exitDy=0;" parent="z6OLUDkOgAweelYilt0C-98" source="z6OLUDkOgAweelYilt0C-43" target="z6OLUDkOgAweelYilt0C-46" edge="1">
          <mxGeometry relative="1" as="geometry">
            <mxPoint x="346.0023856858847" y="186" as="sourcePoint" />
            <mxPoint x="345.6323856858847" y="248" as="targetPoint" />
          </mxGeometry>
        </mxCell>
        <mxCell id="z6OLUDkOgAweelYilt0C-45" style="edgeStyle=orthogonalEdgeStyle;rounded=0;orthogonalLoop=1;jettySize=auto;html=1;exitX=0.5;exitY=1;exitDx=0;exitDy=0;" parent="z6OLUDkOgAweelYilt0C-98" source="z6OLUDkOgAweelYilt0C-46" target="z6OLUDkOgAweelYilt0C-49" edge="1">
          <mxGeometry relative="1" as="geometry" />
        </mxCell>
        <mxCell id="z6OLUDkOgAweelYilt0C-46" value="login to the system" style="rounded=1;whiteSpace=wrap;html=1;" parent="z6OLUDkOgAweelYilt0C-98" vertex="1">
          <mxGeometry x="285.9223856858847" y="239" width="120" height="60" as="geometry" />
        </mxCell>
        <mxCell id="z6OLUDkOgAweelYilt0C-48" style="edgeStyle=orthogonalEdgeStyle;rounded=0;orthogonalLoop=1;jettySize=auto;html=1;exitX=0;exitY=0.5;exitDx=0;exitDy=0;entryX=0.5;entryY=1;entryDx=0;entryDy=0;" parent="z6OLUDkOgAweelYilt0C-98" source="z6OLUDkOgAweelYilt0C-49" target="z6OLUDkOgAweelYilt0C-53" edge="1">
          <mxGeometry relative="1" as="geometry">
            <mxPoint x="143.0023856858847" y="293" as="targetPoint" />
          </mxGeometry>
        </mxCell>
        <mxCell id="z6OLUDkOgAweelYilt0C-49" value="" style="rhombus;whiteSpace=wrap;html=1;" parent="z6OLUDkOgAweelYilt0C-98" vertex="1">
          <mxGeometry x="321.9223856858847" y="377" width="48" height="48" as="geometry" />
        </mxCell>
        <mxCell id="z6OLUDkOgAweelYilt0C-50" value="[valid entry data]" style="text;html=1;align=center;verticalAlign=middle;resizable=0;points=[];autosize=1;strokeColor=none;fillColor=none;" parent="z6OLUDkOgAweelYilt0C-98" vertex="1">
          <mxGeometry x="370.0023856858847" y="377" width="106" height="26" as="geometry" />
        </mxCell>
        <mxCell id="z6OLUDkOgAweelYilt0C-51" value="[invalid login credentials]" style="text;html=1;align=center;verticalAlign=middle;resizable=0;points=[];autosize=1;strokeColor=none;fillColor=none;" parent="z6OLUDkOgAweelYilt0C-98" vertex="1">
          <mxGeometry x="167.82238568588468" y="376" width="149" height="26" as="geometry" />
        </mxCell>
        <mxCell id="z6OLUDkOgAweelYilt0C-52" style="edgeStyle=orthogonalEdgeStyle;rounded=0;orthogonalLoop=1;jettySize=auto;html=1;exitX=1;exitY=0.5;exitDx=0;exitDy=0;" parent="z6OLUDkOgAweelYilt0C-98" source="z6OLUDkOgAweelYilt0C-53" edge="1">
          <mxGeometry relative="1" as="geometry">
            <mxPoint x="347.0023856858847" y="215" as="targetPoint" />
          </mxGeometry>
        </mxCell>
        <mxCell id="z6OLUDkOgAweelYilt0C-53" value="renter login credentials" style="rounded=1;whiteSpace=wrap;html=1;" parent="z6OLUDkOgAweelYilt0C-98" vertex="1">
          <mxGeometry x="123.00238568588469" y="197" width="82" height="38" as="geometry" />
        </mxCell>
        <mxCell id="z6OLUDkOgAweelYilt0C-54" value="" style="group" parent="z6OLUDkOgAweelYilt0C-98" vertex="1" connectable="0">
          <mxGeometry y="989.1728545119705" width="333.4254473161034" height="39.82228360957646" as="geometry" />
        </mxCell>
        <mxCell id="z6OLUDkOgAweelYilt0C-55" value="" style="group" parent="z6OLUDkOgAweelYilt0C-54" vertex="1" connectable="0">
          <mxGeometry x="295.6282306163022" y="2.0248618784530663" width="37.7972166998012" height="37.797421731123386" as="geometry" />
        </mxCell>
        <mxCell id="z6OLUDkOgAweelYilt0C-56" value="" style="ellipse;whiteSpace=wrap;html=1;aspect=fixed;fillColor=none;container=0;strokeWidth=0.5;" parent="z6OLUDkOgAweelYilt0C-55" vertex="1">
          <mxGeometry width="37.7972166998012" height="37.7972166998012" as="geometry" />
        </mxCell>
        <mxCell id="z6OLUDkOgAweelYilt0C-57" value="" style="ellipse;whiteSpace=wrap;html=1;aspect=fixed;fillColor=#000000;container=0;" parent="z6OLUDkOgAweelYilt0C-55" vertex="1">
          <mxGeometry x="4.0497017892644145" y="4.0497237569060776" width="29.69781312127237" height="29.69781312127237" as="geometry" />
        </mxCell>
        <mxCell id="z6OLUDkOgAweelYilt0C-58" value="" style="endArrow=classic;html=1;rounded=0;jumpSize=20;strokeWidth=2;" parent="z6OLUDkOgAweelYilt0C-54" edge="1">
          <mxGeometry width="50" height="50" relative="1" as="geometry">
            <mxPoint x="101.24254473161031" y="19.965138121546914" as="sourcePoint" />
            <mxPoint x="268.6302186878727" y="19.965138121546914" as="targetPoint" />
          </mxGeometry>
        </mxCell>
        <mxCell id="z6OLUDkOgAweelYilt0C-59" value="End" style="text;html=1;align=center;verticalAlign=middle;resizable=0;points=[];autosize=1;strokeColor=none;fillColor=none;container=0;fontSize=16;" parent="z6OLUDkOgAweelYilt0C-54" vertex="1">
          <mxGeometry width="46" height="31" as="geometry" />
        </mxCell>
        <mxCell id="z6OLUDkOgAweelYilt0C-60" value="" style="group" parent="z6OLUDkOgAweelYilt0C-98" vertex="1" connectable="0">
          <mxGeometry x="27.350298210735588" width="337.4751491053678" height="41.84714548802947" as="geometry" />
        </mxCell>
        <mxCell id="z6OLUDkOgAweelYilt0C-61" value="" style="ellipse;whiteSpace=wrap;html=1;aspect=fixed;fillColor=#000000;container=0;" parent="z6OLUDkOgAweelYilt0C-60" vertex="1">
          <mxGeometry x="299.6779324055666" y="2.0248618784530663" width="37.7972166998012" height="37.7972166998012" as="geometry" />
        </mxCell>
        <mxCell id="z6OLUDkOgAweelYilt0C-62" value="" style="group" parent="z6OLUDkOgAweelYilt0C-60" vertex="1" connectable="0">
          <mxGeometry width="272.67992047713716" height="41.84714548802947" as="geometry" />
        </mxCell>
        <mxCell id="z6OLUDkOgAweelYilt0C-63" value="" style="endArrow=classic;html=1;rounded=0;jumpSize=20;strokeWidth=2;" parent="z6OLUDkOgAweelYilt0C-62" edge="1">
          <mxGeometry width="50" height="50" relative="1" as="geometry">
            <mxPoint x="105.29224652087474" y="19.96513812154691" as="sourcePoint" />
            <mxPoint x="272.67992047713716" y="19.96513812154691" as="targetPoint" />
          </mxGeometry>
        </mxCell>
        <mxCell id="z6OLUDkOgAweelYilt0C-64" value="Start" style="text;html=1;align=center;verticalAlign=middle;resizable=0;points=[];autosize=1;strokeColor=none;fillColor=none;container=0;fontSize=16;" parent="z6OLUDkOgAweelYilt0C-62" vertex="1">
          <mxGeometry width="52" height="31" as="geometry" />
        </mxCell>
        <mxCell id="z6OLUDkOgAweelYilt0C-65" style="edgeStyle=orthogonalEdgeStyle;rounded=0;orthogonalLoop=1;jettySize=auto;html=1;exitX=0.5;exitY=1;exitDx=0;exitDy=0;entryX=0.5;entryY=0;entryDx=0;entryDy=0;" parent="z6OLUDkOgAweelYilt0C-98" source="z6OLUDkOgAweelYilt0C-61" target="z6OLUDkOgAweelYilt0C-43" edge="1">
          <mxGeometry relative="1" as="geometry" />
        </mxCell>
        <mxCell id="z6OLUDkOgAweelYilt0C-68" style="edgeStyle=orthogonalEdgeStyle;rounded=0;orthogonalLoop=1;jettySize=auto;html=1;exitX=0.5;exitY=1;exitDx=0;exitDy=0;entryX=0.5;entryY=0;entryDx=0;entryDy=0;" parent="z6OLUDkOgAweelYilt0C-98" source="z6OLUDkOgAweelYilt0C-69" edge="1">
          <mxGeometry relative="1" as="geometry">
            <mxPoint x="491.0023856858847" y="564.0000000000002" as="targetPoint" />
          </mxGeometry>
        </mxCell>
        <mxCell id="z6OLUDkOgAweelYilt0C-69" value="Select report type" style="rounded=1;whiteSpace=wrap;html=1;" parent="z6OLUDkOgAweelYilt0C-98" vertex="1">
          <mxGeometry x="434.0023856858847" y="502" width="114" height="40" as="geometry" />
        </mxCell>
        <mxCell id="DlYM5Q-oDQOPcz3eqZ3L-7" style="edgeStyle=orthogonalEdgeStyle;rounded=0;orthogonalLoop=1;jettySize=auto;html=1;entryX=0.5;entryY=0;entryDx=0;entryDy=0;" parent="z6OLUDkOgAweelYilt0C-98" source="z6OLUDkOgAweelYilt0C-83" target="z6OLUDkOgAweelYilt0C-88" edge="1">
          <mxGeometry relative="1" as="geometry" />
        </mxCell>
        <mxCell id="z6OLUDkOgAweelYilt0C-83" value="Choose parameters (Data range ETC....)" style="rounded=1;whiteSpace=wrap;html=1;" parent="z6OLUDkOgAweelYilt0C-98" vertex="1">
          <mxGeometry x="436.0023856858847" y="564" width="124" height="56" as="geometry" />
        </mxCell>
        <mxCell id="DlYM5Q-oDQOPcz3eqZ3L-9" style="edgeStyle=orthogonalEdgeStyle;rounded=0;orthogonalLoop=1;jettySize=auto;html=1;exitX=0.5;exitY=1;exitDx=0;exitDy=0;entryX=0.5;entryY=0;entryDx=0;entryDy=0;" parent="z6OLUDkOgAweelYilt0C-98" source="z6OLUDkOgAweelYilt0C-88" target="DlYM5Q-oDQOPcz3eqZ3L-8" edge="1">
          <mxGeometry relative="1" as="geometry" />
        </mxCell>
        <mxCell id="z6OLUDkOgAweelYilt0C-88" value="Define format for reports" style="rounded=1;whiteSpace=wrap;html=1;" parent="z6OLUDkOgAweelYilt0C-98" vertex="1">
          <mxGeometry x="441.0023856858847" y="664" width="114" height="40" as="geometry" />
        </mxCell>
        <mxCell id="z6OLUDkOgAweelYilt0C-93" style="edgeStyle=orthogonalEdgeStyle;rounded=0;orthogonalLoop=1;jettySize=auto;html=1;exitX=0.5;exitY=1;exitDx=0;exitDy=0;" parent="z6OLUDkOgAweelYilt0C-98" source="z6OLUDkOgAweelYilt0C-89" target="z6OLUDkOgAweelYilt0C-92" edge="1">
          <mxGeometry relative="1" as="geometry" />
        </mxCell>
        <mxCell id="z6OLUDkOgAweelYilt0C-89" value="Generate reports" style="rounded=1;whiteSpace=wrap;html=1;" parent="z6OLUDkOgAweelYilt0C-98" vertex="1">
          <mxGeometry x="441.0023856858847" y="819" width="114" height="40" as="geometry" />
        </mxCell>
        <mxCell id="z6OLUDkOgAweelYilt0C-95" style="edgeStyle=orthogonalEdgeStyle;rounded=0;orthogonalLoop=1;jettySize=auto;html=1;exitX=0.5;exitY=1;exitDx=0;exitDy=0;entryX=0.5;entryY=0;entryDx=0;entryDy=0;" parent="z6OLUDkOgAweelYilt0C-98" source="z6OLUDkOgAweelYilt0C-92" target="z6OLUDkOgAweelYilt0C-94" edge="1">
          <mxGeometry relative="1" as="geometry" />
        </mxCell>
        <mxCell id="z6OLUDkOgAweelYilt0C-92" value="Insert to data store" style="rounded=1;whiteSpace=wrap;html=1;" parent="z6OLUDkOgAweelYilt0C-98" vertex="1">
          <mxGeometry x="441.0023856858847" y="897" width="114" height="40" as="geometry" />
        </mxCell>
        <mxCell id="z6OLUDkOgAweelYilt0C-96" style="edgeStyle=orthogonalEdgeStyle;rounded=0;orthogonalLoop=1;jettySize=auto;html=1;exitX=0;exitY=0.5;exitDx=0;exitDy=0;" parent="z6OLUDkOgAweelYilt0C-98" source="z6OLUDkOgAweelYilt0C-94" edge="1">
          <mxGeometry relative="1" as="geometry">
            <mxPoint x="334.14525445448584" y="1010.0952380952381" as="targetPoint" />
          </mxGeometry>
        </mxCell>
        <mxCell id="z6OLUDkOgAweelYilt0C-94" value="Log out" style="rounded=1;whiteSpace=wrap;html=1;" parent="z6OLUDkOgAweelYilt0C-98" vertex="1">
          <mxGeometry x="457.0023856858847" y="991" width="82" height="38" as="geometry" />
        </mxCell>
        <mxCell id="DlYM5Q-oDQOPcz3eqZ3L-5" style="edgeStyle=orthogonalEdgeStyle;rounded=0;orthogonalLoop=1;jettySize=auto;html=1;exitX=0.5;exitY=1;exitDx=0;exitDy=0;entryX=0.5;entryY=0;entryDx=0;entryDy=0;" parent="z6OLUDkOgAweelYilt0C-98" source="DlYM5Q-oDQOPcz3eqZ3L-1" target="z6OLUDkOgAweelYilt0C-69" edge="1">
          <mxGeometry relative="1" as="geometry" />
        </mxCell>
        <mxCell id="DlYM5Q-oDQOPcz3eqZ3L-1" value="&lt;span style=&quot;text-wrap: nowrap;&quot;&gt;Choose generate reports option from the menu&lt;/span&gt;" style="rounded=1;whiteSpace=wrap;html=1;" parent="z6OLUDkOgAweelYilt0C-98" vertex="1">
          <mxGeometry x="374" y="434" width="272" height="44" as="geometry" />
        </mxCell>
        <mxCell id="DlYM5Q-oDQOPcz3eqZ3L-2" style="edgeStyle=orthogonalEdgeStyle;rounded=0;orthogonalLoop=1;jettySize=auto;html=1;exitX=1;exitY=0.5;exitDx=0;exitDy=0;entryX=0.481;entryY=0.018;entryDx=0;entryDy=0;entryPerimeter=0;" parent="z6OLUDkOgAweelYilt0C-98" source="z6OLUDkOgAweelYilt0C-49" target="DlYM5Q-oDQOPcz3eqZ3L-1" edge="1">
          <mxGeometry relative="1" as="geometry" />
        </mxCell>
        <mxCell id="DlYM5Q-oDQOPcz3eqZ3L-11" style="edgeStyle=orthogonalEdgeStyle;rounded=0;orthogonalLoop=1;jettySize=auto;html=1;entryX=0.5;entryY=0;entryDx=0;entryDy=0;" parent="z6OLUDkOgAweelYilt0C-98" source="DlYM5Q-oDQOPcz3eqZ3L-8" target="z6OLUDkOgAweelYilt0C-89" edge="1">
          <mxGeometry relative="1" as="geometry" />
        </mxCell>
        <mxCell id="DlYM5Q-oDQOPcz3eqZ3L-8" value="collect reports from data stores" style="rounded=1;whiteSpace=wrap;html=1;" parent="z6OLUDkOgAweelYilt0C-98" vertex="1">
          <mxGeometry x="441.0023856858847" y="744" width="114" height="40" as="geometry" />
        </mxCell>
      </root>
    </mxGraphModel>
  </diagram>
</mxfile>
